# xmcd CD database file
#
# Track frame offsets:
#	150
#	24030
#	50510
#	71715
#	96595
#	118230
#	166118
#	193478
#	213713
#	240945
#	267225
#	290348
#
# Disc length: 4111 seconds
#
# Revision: 1
# Processed by: cddbd v1.5.2PL0 Copyright (c) Steve Scherf et al.
# Submitted via: CDex 1.70beta2
#
DISCID=b3100d0c
DTITLE=Various Artist - Jazz Lounge [CD2)
DYEAR=2005
DGENRE=Jazz
TTITLE0=EQ - Earth Ship
TTITLE1=Philippe Saisse Acoustique Trio - Laura
TTITLE2=Shiro Sasaki - Feel Like Makin' Love
TTITLE3=EQ - Sleeping Tiger
TTITLE4=Philippe Saisse Acoustique Trio Fortune Smiles
TTITLE5=Osamu Koike - My One And Only Love
TTITLE6=Cesar Camargo Mariano - The Shadow Of Your Smile
TTITLE7=Shiro Sasaki - The Summer Knows
TTITLE8=EQ - The Lullaby Of Peach
TTITLE9=Philippe Saisse Acoustique Trio - La Valse Des Lilas
TTITLE10=EQ - Soleil Levant
TTITLE11=Osamu Koike - April In Paris
EXTD=YEAR: 2005
EXTT0=
EXTT1=
EXTT2=
EXTT3=
EXTT4=
EXTT5=
EXTT6=
EXTT7=
EXTT8=
EXTT9=
EXTT10=
EXTT11=
PLAYORDER=
